<svg width="39" height="31" viewBox="0 0 39 31" fill="none" xmlns="http://www.w3.org/2000/svg">
<path d="M36.5625 0H2.4375C1.79103 0 1.17105 0.279078 0.713927 0.77584C0.256807 1.2726 0 1.94636 0 2.64888L0 27.3718C0 28.0743 0.256807 28.7481 0.713927 29.2448C1.17105 29.7416 1.79103 30.0207 2.4375 30.0207H36.5625C37.209 30.0207 37.829 29.7416 38.2861 29.2448C38.7432 28.7481 39 28.0743 39 27.3718V2.64888C39 1.94636 38.7432 1.2726 38.2861 0.77584C37.829 0.279078 37.209 0 36.5625 0ZM36.0425 1.76592L19.5 15.6637L2.9575 1.76592H36.0425ZM1.625 27.0098V2.87845L14.1456 13.3945L1.625 27.0098ZM2.77063 28.2547L15.4375 14.4894L18.9963 17.4826C19.1383 17.6015 19.3126 17.6659 19.4919 17.6659C19.6712 17.6659 19.8454 17.6015 19.9875 17.4826L23.5625 14.4894L36.2294 28.2547H2.77063ZM37.375 27.0098L24.8544 13.3945L37.375 2.87845V27.0098Z" fill="black"/>
</svg>
