<svg width="47" height="47" viewBox="0 0 47 47" fill="none" xmlns="http://www.w3.org/2000/svg">
<path d="M27.2718 32.7809L34.2938 21.4899C34.3167 21.4534 34.3359 21.415 34.3509 21.3752C35.5635 19.3978 36.2037 17.1389 36.2037 14.8328C36.2037 7.91429 30.5751 2.28564 23.6567 2.28564C16.7383 2.28564 11.1092 7.91429 11.1092 14.8328C11.1092 17.1394 11.7504 19.3992 12.9638 21.378C12.9779 21.4126 12.9943 21.4464 13.014 21.4792L19.7839 32.809C14.5286 33.5519 11.0727 35.7128 11.0727 38.3342C11.0727 41.5822 16.5921 44.1258 23.6379 44.1258C30.6837 44.1258 36.2032 41.5817 36.2032 38.3342C36.2037 35.7006 32.5866 33.4914 27.2718 32.7809ZM14.2251 20.7452C13.1058 18.9636 12.5142 16.9193 12.5142 14.8328C12.5142 8.68895 17.5124 3.6907 23.6567 3.6907C29.8004 3.6907 34.7986 8.68895 34.7986 14.8328C34.7986 16.9202 34.2071 18.9646 33.0882 20.7452C33.0648 20.7827 33.0456 20.8216 33.0302 20.8619L25.6116 32.7894C25.5001 32.9603 25.4781 32.9992 25.3418 33.2231L23.4684 36.2355L14.2879 20.8717C14.2715 20.8281 14.2504 20.7855 14.2251 20.7452ZM23.6384 42.7208C17.0614 42.7208 12.4782 40.4085 12.4782 38.3342C12.4782 36.4514 15.9299 34.6773 20.5726 34.1279L22.8535 37.9455C22.9794 38.1557 23.2052 38.2855 23.4501 38.2874C23.452 38.2874 23.4543 38.2874 23.4562 38.2874C23.6988 38.2874 23.9246 38.1618 24.0529 37.9558L26.4508 34.1003C31.1675 34.6113 34.7982 36.4303 34.7982 38.3342C34.7986 40.409 30.2154 42.7208 23.6384 42.7208Z" fill="black"/>
<path d="M28.2006 14.8327C28.2006 12.3172 26.1539 10.2705 23.6384 10.2705C21.1229 10.2705 19.0762 12.3172 19.0762 14.8327C19.0762 17.3482 21.1229 19.3949 23.6384 19.3949C26.1539 19.3949 28.2006 17.3482 28.2006 14.8327ZM20.4813 14.8327C20.4813 13.0919 21.8976 11.6756 23.6384 11.6756C25.3792 11.6756 26.7955 13.0919 26.7955 14.8327C26.7955 16.5736 25.3797 17.9899 23.6384 17.9899C21.8971 17.9899 20.4813 16.5736 20.4813 14.8327Z" fill="black"/>
</svg>
