<svg width="224" height="68" viewBox="0 0 224 68" fill="none" xmlns="http://www.w3.org/2000/svg">
<path d="M51.7419 41.9075L41.2585 46.4186H21.7004L16.4378 65.7838L2 65.7157L26.4209 2H35.4865L48.1922 33.1364L51.7419 41.9075ZM41.9062 39.5518C41.9062 39.5518 31.7419 12.1411 30.7589 8.6933C29.9488 12.7786 20.3485 39.5518 20.3485 39.5518H41.9062ZM53.9962 47.0411L61.5125 65.7157H46.8472L42.5054 51.0117L53.9962 47.0411Z" fill="black" stroke="black" stroke-width="3.2" stroke-miterlimit="2" stroke-linejoin="round"/>
<path d="M80.3935 61.7786V67.3352H54V20H65.6049V61.7786H80.3935ZM115.111 20V25.5567H102.993V67.3352H91.4903V25.5567H79.1663V20H115.111ZM156.589 67.3352H144.265L137.385 50.4593C136.905 49.2929 136.426 48.5383 135.947 48.1954C135.536 47.8523 134.646 47.6808 133.277 47.6808H131.325V67.3352H119.72V20H138.103C144.608 20 149.092 21.6121 151.557 24.8364C153.611 27.6491 154.638 30.9077 154.638 34.6122C154.638 40.8549 151.831 44.834 146.217 46.5489C147.723 47.4408 148.75 48.5041 149.298 49.7388L156.589 67.3352ZM131.325 43.5648H136.46C138.514 43.5648 140.123 42.6729 141.287 40.8894C142.451 39.1056 143.033 36.9103 143.033 34.3035C143.033 31.6965 142.451 29.3642 141.287 27.3061C140.123 25.248 138.514 24.219 136.46 24.219H131.325V43.5648ZM175.064 67.3352H163.459V20H175.064V67.3352ZM209.81 67.3352L198.514 50.0475L186.498 67.3352H179.72L195.125 44.9023L178.796 20H192.044L203.135 37.1848L215.356 20H222.237L206.627 42.2269L223.059 67.3352H209.81Z" fill="black"/>
</svg>
