<svg width="30" height="22" viewBox="0 0 30 22" fill="none" xmlns="http://www.w3.org/2000/svg">
<path d="M2.25 4.625H27.75C28.923 4.625 29.875 3.673 29.875 2.5C29.875 1.327 28.923 0.375 27.75 0.375H2.25C1.077 0.375 0.125 1.327 0.125 2.5C0.125 3.673 1.077 4.625 2.25 4.625ZM27.75 8.875H2.25C1.077 8.875 0.125 9.827 0.125 11C0.125 12.173 1.077 13.125 2.25 13.125H27.75C28.923 13.125 29.875 12.173 29.875 11C29.875 9.827 28.923 8.875 27.75 8.875ZM27.75 17.375H2.25C1.077 17.375 0.125 18.327 0.125 19.5C0.125 20.673 1.077 21.625 2.25 21.625H27.75C28.923 21.625 29.875 20.673 29.875 19.5C29.875 18.327 28.923 17.375 27.75 17.375Z" fill="black"/>
</svg>
