<svg width="40" height="41" viewBox="0 0 40 41" fill="none" xmlns="http://www.w3.org/2000/svg">
<path d="M11.8622 20.6342C13.5654 24.2441 16.4096 27.1556 19.9313 28.8944C20.191 29.0207 20.4784 29.0753 20.765 29.053C21.0516 29.0306 21.3276 28.9321 21.5658 28.767L26.7383 25.2209C26.9668 25.0618 27.2308 24.9647 27.5058 24.9387C27.7808 24.9127 28.0577 24.9587 28.3107 25.0722L37.9936 29.3403C38.3245 29.4817 38.601 29.7308 38.7804 30.0493C38.9599 30.3677 39.0323 30.7379 38.9867 31.1028C38.6798 33.5612 37.5106 35.8206 35.6979 37.4582C33.8852 39.0958 31.5532 39.9994 29.1383 40C21.6755 40 14.5185 36.9574 9.24151 31.5416C3.96456 26.1258 1 18.7804 1 11.1212C1.00054 8.64276 1.88101 6.2494 3.47664 4.389C5.07226 2.5286 7.27372 1.32865 9.66907 1.01367C10.0246 0.966802 10.3853 1.04118 10.6956 1.22535C11.0059 1.40953 11.2486 1.69328 11.3863 2.03292L15.545 11.9918C15.6532 12.2474 15.6984 12.5263 15.6767 12.8041C15.6551 13.0818 15.5672 13.3498 15.4209 13.5844L11.9657 18.978C11.8118 19.2219 11.7215 19.5023 11.7034 19.7923C11.6853 20.0822 11.74 20.3721 11.8622 20.6342Z" stroke="black" stroke-width="2" stroke-linecap="round" stroke-linejoin="round"/>
</svg>
