<svg width="160" height="160" viewBox="0 0 160 160" fill="none" xmlns="http://www.w3.org/2000/svg">
<path fill-rule="evenodd" clip-rule="evenodd" d="M71.6215 0.175596C50.3195 3.39796 35.6973 10.5035 22.5881 24.0039C16.3119 30.467 7.7631 42.9826 6.9647 46.8762C6.89844 47.1993 6.24775 48.89 5.51841 50.6339C-1.79289 68.1154 -1.84239 90.3617 5.38907 109.032C21.024 149.4 65.8316 169.84 106.911 155.346C107.964 154.974 108.963 154.548 109.13 154.4C109.297 154.251 109.764 154.129 110.168 154.129C110.572 154.129 110.903 154.009 110.903 153.863C110.903 153.716 111.082 153.596 111.302 153.596C111.935 153.594 118.435 150.261 121.761 148.232C141.094 136.437 154.637 116.463 158.64 93.8399C158.92 92.2567 159.285 90.2805 159.45 89.4486C161.187 80.6986 158.613 60.7768 154.502 51.1572C153.895 49.7368 153.378 48.4682 153.353 48.3387C153.223 47.659 152.133 45.2371 150.87 42.8259C138.65 19.4982 116.327 3.99565 89.8249 0.431066C86.7703 0.0204746 73.8475 -0.161033 71.6215 0.175596ZM128.582 31.3841C134.507 33.162 134.229 42.4513 128.212 43.7422C127.002 44.0017 115.464 44.1052 87.7455 44.1052C49.4146 44.1052 48.9511 44.1128 47.2182 44.7621C45.4857 45.4114 42.239 47.9757 42.2422 48.6925C42.2454 49.4585 44.5432 51.5283 46.3124 52.3586L48.1487 53.2206L84.3958 53.3905C123.233 53.5724 121.375 53.4885 124.777 55.2128C126.74 56.2075 129.907 59.1932 130.807 60.8967C132.934 64.921 132.758 62.4199 132.868 90.1618C132.966 115.224 132.934 116.197 131.897 119.107C130.651 122.602 124.199 128.659 122.707 127.735C122.538 127.631 122.399 127.684 122.399 127.855C122.399 128.798 117.809 128.907 82.32 128.805L46.5519 128.702L43.5683 127.659C35.5105 124.841 30.3477 119.689 27.6284 111.751L26.7517 109.192L26.6603 81.2064C26.5805 56.6281 26.6312 52.9136 27.0779 50.6995C29.1246 40.5578 36.471 33.4351 47.1906 31.1994C48.9531 30.8316 127.334 31.0095 128.582 31.3841ZM39.7568 85.4046L39.8454 106.953L40.7013 108.782C41.7795 111.086 43.9671 113.446 46.1451 114.654L47.8294 115.589L83.1699 115.676L118.51 115.762L119.178 114.913C120.047 113.806 120.25 68.4512 119.391 67.2746C118.949 66.6682 118.107 66.6502 82.7452 66.4938L46.5519 66.3339L43.6777 65.2737C42.0969 64.6904 40.548 64.133 40.2358 64.0347C39.6953 63.8644 39.6726 64.8799 39.7568 85.4046ZM107.297 85.397C113.313 88.3135 111.088 97.3182 104.351 97.3182C97.5482 97.3182 95.1594 88.5278 101.145 85.5186C103.147 84.5119 105.381 84.4679 107.297 85.397Z" fill="#57868B"/>
</svg>
