<svg width="160" height="160" viewBox="0 0 160 160" fill="none" xmlns="http://www.w3.org/2000/svg">
<path fill-rule="evenodd" clip-rule="evenodd" d="M69.4447 0.363548C65.5218 0.927265 60.2054 2.02187 58.3857 2.64044C57.5996 2.90748 56.8155 3.0388 56.6432 2.9323C56.4708 2.82581 56.3297 2.90628 56.3297 3.11167C56.3297 3.31706 56.1229 3.40594 55.8706 3.30905C55.6179 3.21176 55.366 3.23818 55.3109 3.3675C55.2161 3.5877 50.0697 5.55951 48.9289 5.81254C48.641 5.8762 48.1372 6.06317 47.8093 6.22773C47.4814 6.39228 45.8457 7.19381 44.1743 8.00856C40.6976 9.70331 38.6964 10.8368 37.2382 11.937C36.6784 12.3593 36.0786 12.7053 35.9055 12.7053C35.7323 12.7053 35.5428 12.8158 35.4844 12.9507C35.4256 13.0856 33.8662 14.2995 32.0189 15.6484C29.9269 17.1762 26.6414 20.1337 23.3067 23.4904C18.4789 28.3508 17.0574 29.9959 14.6792 33.4767C14.2757 34.0669 13.6939 34.8236 13.386 35.1583C13.0782 35.4926 12.8263 35.9001 12.8263 36.0639C12.8263 36.2272 12.6443 36.5515 12.4224 36.7845C11.0365 38.2363 7.39313 45.1146 6.09043 48.7383C2.97161 57.4127 2.26708 59.768 1.34783 64.5929C-0.677395 75.2226 -0.405098 88.2954 2.06196 98.8783C2.63214 101.326 4.47344 107.207 4.81491 107.672C4.94406 107.849 5.23835 108.713 5.46906 109.594C5.69977 110.475 5.99566 111.34 6.12641 111.516C6.25756 111.692 6.73978 112.764 7.1984 113.897C7.65663 115.031 8.75061 117.159 9.62908 118.626C10.5079 120.093 11.2269 121.373 11.2269 121.471C11.2269 121.568 11.5867 122.12 12.0266 122.698C12.4664 123.275 12.8263 123.914 12.8263 124.118C12.8263 124.321 12.9702 124.488 13.1461 124.488C13.3221 124.488 13.466 124.692 13.466 124.941C13.466 125.191 13.586 125.443 13.7323 125.502C13.8787 125.561 14.7783 126.688 15.7316 128.008C19.4933 133.215 26.3035 140.147 30.9969 143.545C31.7267 144.074 32.3272 144.614 32.3312 144.746C32.3352 144.878 32.5467 144.987 32.8006 144.987C33.0545 144.987 33.4864 145.307 33.7603 145.698C34.0342 146.09 34.2581 146.296 34.2581 146.157C34.2581 145.917 36.1562 147.117 36.4972 147.571C37.2869 148.626 45.9088 152.927 51.2116 154.913C52.7071 155.473 54.2905 156.088 54.7303 156.28C55.1701 156.472 55.6463 156.601 55.7887 156.567C55.931 156.532 56.7227 156.735 57.548 157.017C68.3323 160.702 86.6561 161.012 99.6731 157.729C101.784 157.197 103.656 156.738 103.832 156.71C104.008 156.682 104.331 156.547 104.551 156.409C104.771 156.272 104.951 156.257 104.951 156.377C104.951 156.498 105.131 156.448 105.351 156.268C105.571 156.088 107.19 155.423 108.95 154.79C112.401 153.55 121.905 148.906 121.905 148.461C121.905 148.312 122.109 148.19 122.358 148.19C122.607 148.19 122.859 148.073 122.917 147.93C123.075 147.549 126.063 145.556 126.063 145.833C126.063 145.963 126.267 145.79 126.517 145.448C126.767 145.106 127.091 144.824 127.237 144.822C127.383 144.819 127.862 144.511 128.302 144.136C128.742 143.761 130.838 142.007 132.96 140.238C136.445 137.333 139.968 133.606 142.998 129.62C143.603 128.823 144.287 128.056 144.517 127.915C144.748 127.774 144.936 127.445 144.936 127.184C144.936 126.923 145.151 126.627 145.414 126.526C145.677 126.425 145.812 126.213 145.715 126.056C145.618 125.898 145.655 125.769 145.798 125.769C145.942 125.769 146.239 125.364 146.457 124.868C146.676 124.373 147.143 123.658 147.495 123.28C147.847 122.902 148.135 122.521 148.135 122.433C148.135 122.346 148.509 121.727 148.966 121.059C150.557 118.732 153.504 112.45 154.871 108.473C155.628 106.271 156.329 104.397 156.429 104.309C156.529 104.221 156.637 103.933 156.667 103.669C156.698 103.404 157.161 101.5 157.696 99.436C160.765 87.5907 160.768 72.3195 157.705 60.2745C157.346 58.862 157.025 57.4183 156.992 57.066C156.959 56.7136 156.845 56.3533 156.739 56.2652C156.633 56.1771 156.288 55.3123 155.973 54.3435C154.835 50.8507 152.243 44.5349 151.173 42.6527C150.572 41.5958 149.541 39.7581 148.88 38.569C148.22 37.3799 147.566 36.407 147.428 36.407C147.289 36.407 147.175 36.1908 147.175 35.9266C147.175 35.6623 147.031 35.4461 146.855 35.4461C146.679 35.4461 146.535 35.2299 146.535 34.9657C146.535 34.7014 146.408 34.4852 146.252 34.4852C146.096 34.4852 145.735 33.9924 145.449 33.3898C145.164 32.7877 144.819 32.2472 144.682 32.1887C144.546 32.1307 143.768 31.2182 142.953 30.1613C139.576 25.7793 135.62 21.7568 130.701 17.7035C129.47 16.6889 128.174 15.6155 127.822 15.3185C127.471 15.0214 126.787 14.5758 126.303 14.3284C125.819 14.0805 125.423 13.7582 125.423 13.6121C125.423 13.4656 125.207 13.3459 124.944 13.3459C124.68 13.3459 124.464 13.2017 124.464 13.0256C124.464 12.8494 124.26 12.7053 124.011 12.7053C123.761 12.7053 123.509 12.586 123.451 12.4398C123.195 11.8028 115.275 7.50129 112.068 6.25815C111.673 6.10481 111.025 5.84177 110.629 5.67442C110.233 5.50666 108.758 4.97378 107.35 4.49053C105.943 4.00689 104.743 3.49442 104.684 3.35189C104.625 3.20936 104.46 3.16452 104.318 3.2526C104.176 3.34028 103.479 3.20736 102.77 2.95673C101.336 2.45026 96.6327 1.38889 92.4759 0.633795C88.6637 -0.0588399 73.6107 -0.235402 69.4447 0.363548ZM81.1578 16.1484C81.4829 16.6329 81.9043 17.3175 82.0938 17.6698C83.1203 19.576 84.8588 22.5451 85.2287 23.0239C85.505 23.3819 87.0408 23.8759 89.6246 24.4384C94.0017 25.3909 94.3952 25.5743 94.3952 26.6589C94.3952 27.3711 91.2472 31.392 89.7157 32.6363C88.7433 33.4263 88.6669 34.3071 89.172 38.8965C89.8737 45.2691 89.4107 45.5646 83.5193 42.5062C80.5416 40.9604 79.3585 41.0236 75.2984 42.9466C71.9737 44.5208 70.7026 44.6938 70.2935 43.6268C70.1204 43.1748 70.8973 35.3989 71.1992 34.5653C71.2788 34.3451 71.196 34.1649 71.0153 34.1649C70.8345 34.1649 70.7678 34.0332 70.8673 33.8719C70.9665 33.7109 70.9133 33.5308 70.749 33.4715C70.0185 33.2093 65.2863 27.2462 65.2863 26.5884C65.2863 25.6203 65.4338 25.5567 70.0452 24.5293C74.7211 23.488 74.5851 23.5973 77.1765 18.7908C79.2889 14.8733 79.9899 14.408 81.1578 16.1484ZM45.1475 28.4517C48.527 32.2047 47.9517 31.9229 52.2316 31.9229C56.6927 31.9229 58.3297 32.7573 56.8247 34.2642C56.5692 34.5201 56.4268 34.7959 56.5084 34.8776C56.59 34.9593 56.2937 35.5614 55.8503 36.2156C53.4404 39.7713 53.3776 40.3386 54.8818 44.936C56.3073 49.2932 55.5224 50.6601 52.4495 49.1699C52.1625 49.0306 51.0109 48.8256 49.8905 48.7143C48.7698 48.6026 47.7705 48.4617 47.6702 48.4012C47.3355 48.199 45.8341 49.1423 43.5537 50.9872C40.0735 53.8026 39.6664 53.5403 38.8867 47.9764C38.271 43.5856 38.2582 43.5528 36.8739 42.8217C36.2269 42.4802 35.2361 41.7979 34.6723 41.3055C34.1085 40.8134 33.2609 40.1048 32.7882 39.7304C31.228 38.4953 31.8278 37.7066 35.6647 35.949C39.3729 34.2506 39.1918 34.4744 40.347 30.1613C41.6261 25.3869 42.2031 25.1815 45.1475 28.4517ZM118.111 26.558C118.378 26.7782 119.003 28.4717 119.499 30.3214C119.995 32.1711 120.551 33.8759 120.733 34.1097C121.083 34.5581 124.144 36.206 124.144 35.9462C124.144 35.8629 124.9 36.1848 125.823 36.6616C128.047 37.8091 128.232 38.7816 126.479 40.11C125.81 40.6165 124.916 41.3503 124.49 41.7403C124.065 42.1303 123.249 42.702 122.676 43.0107C121.56 43.6128 121.464 43.9279 120.65 49.6459C120.11 53.4462 119.536 53.5631 115.798 50.6357L113.108 48.5293L111.029 48.6775C109.885 48.7587 108.047 49.0154 106.944 49.2476C105.058 49.6447 104.902 49.6315 104.297 49.0262L103.654 48.3828L104.782 45.2615C106.133 41.5269 106.185 40.2573 105.069 38.3288C104.61 37.536 103.961 36.4098 103.627 35.8257C103.293 35.2419 103.103 34.6294 103.205 34.4644C103.306 34.2999 103.237 34.1649 103.051 34.1649C102.435 34.1649 102.699 32.9294 103.423 32.4213C103.964 32.0422 104.993 31.9229 107.727 31.9229H111.32L113.094 30.1889C114.069 29.2352 114.867 28.3576 114.867 28.2383C114.867 27.08 117.247 25.8473 118.111 26.558ZM86.2383 56.63C87.2939 57.1336 88.3395 57.546 88.5618 57.546C88.7841 57.5464 89.2159 57.6813 89.5214 57.8459C90.2883 58.259 96.0805 59.8181 97.6163 60.0243C98.3077 60.1171 98.8746 60.2821 98.8758 60.391C98.8771 60.4999 99.5608 60.6316 100.395 60.6829C101.23 60.7345 103.199 60.8786 104.772 61.0032L107.632 61.2298L108.014 62.8312C108.69 65.6694 111.623 81.4339 112.335 86.0525C112.949 90.0438 111.314 98.1164 109.667 99.2202C109.506 99.3283 109.39 99.5105 109.409 99.6254C109.558 100.544 105.292 105.66 103.317 106.931C102.858 107.226 102.282 107.668 102.037 107.911C101.341 108.606 98.554 110.166 98.5488 109.865C98.546 109.716 98.4332 109.768 98.2981 109.981C98.0726 110.336 93.0669 112.55 91.1964 113.121C90.4395 113.353 89.469 113.772 84.9588 115.821C83.9032 116.3 82.2874 116.96 81.3685 117.287L79.6976 117.882L77.6899 117.039C76.5855 116.575 74.0417 115.455 72.0365 114.549C70.0312 113.643 68.16 112.855 67.8781 112.798C64.2674 112.063 54.4576 106.222 53.3816 104.166C53.1921 103.804 52.5067 102.86 51.8582 102.067C50.7838 100.753 50.0581 99.4452 50.3112 99.2783C50.3667 99.2418 50.1672 99.0256 49.8681 98.7978C47.6642 97.1191 46.4163 82.9145 48.3667 81.7077C48.5298 81.6069 48.5838 81.3959 48.4867 81.2385C48.3899 81.0816 48.9733 77.4522 49.7834 73.1735C50.5931 68.8944 51.4275 64.4567 51.6371 63.3117L52.0177 61.2298L55.0534 60.9891C56.7231 60.8566 58.7715 60.7125 59.606 60.6689C60.4401 60.6252 61.1238 60.4975 61.1254 60.3854C61.1266 60.2733 61.7768 60.0839 62.5705 59.965C63.3638 59.8457 65.2711 59.3825 66.8089 58.9353C68.3463 58.4881 69.8401 58.0761 70.128 58.0196C70.4159 57.9636 70.9197 57.7802 71.2476 57.6124C71.5755 57.4447 72.903 56.8213 74.1973 56.2272C75.4916 55.6334 77.3361 54.6249 78.2961 53.9867L80.0414 52.8261L82.1802 54.2702C83.3566 55.0645 85.1827 56.1263 86.2383 56.63ZM78.5664 57.2177C78.44 57.4227 78.1298 57.5108 77.8771 57.4135C77.6244 57.3162 77.3357 57.4499 77.2361 57.7101C77.1361 57.9704 76.9258 58.1037 76.7683 58.006C76.6107 57.9087 76.482 57.9852 76.482 58.1762C76.482 58.4804 75.3264 59.0914 74.4028 59.2752C74.2269 59.31 73.795 59.4978 73.4432 59.6916C70.8961 61.0964 62.0279 63.4246 57.6844 63.829C54.2681 64.1468 54.921 62.3112 51.0469 82.4901C49.7202 89.4 50.0933 92.6522 52.8714 98.3951C53.5883 99.8772 54.4076 101.164 54.6927 101.254C54.9774 101.345 55.4068 101.863 55.6467 102.406C55.8866 102.948 56.4572 103.535 56.9146 103.709C57.3721 103.883 58.3117 104.586 59.0027 105.271C60.1074 106.366 69.2587 110.752 71.3639 111.195C72.228 111.377 75.9994 113.088 76.1093 113.348C76.1685 113.488 76.3484 113.52 76.5092 113.421C76.6703 113.321 76.8019 113.401 76.8019 113.598C76.8019 113.795 76.9458 113.867 77.1217 113.758C77.2977 113.649 77.4416 113.708 77.4416 113.889C77.4416 114.07 77.6431 114.141 77.8891 114.046C78.1354 113.952 78.4316 114.028 78.5476 114.216C78.8883 114.768 80.5636 114.611 81.9635 113.896C82.6776 113.531 83.3366 113.308 83.4285 113.4C83.5205 113.492 83.7732 113.389 83.9903 113.172C84.2074 112.954 85.4498 112.363 86.7513 111.857C97.7703 107.574 100.371 106.193 103.542 102.94C109.412 96.9189 110.543 91.2057 108.184 79.4865C107.653 76.8441 106.917 72.9525 106.549 70.8386C105.377 64.0996 105.42 64.1673 102.141 63.8398C96.0525 63.2328 84.4526 59.6559 83.4441 58.0749C83.315 57.8723 83.2046 57.8507 83.1994 58.0268C83.1942 58.203 83.0735 58.1638 82.9311 57.9392C82.4669 57.2069 78.9334 56.6231 78.5664 57.2177ZM81.9947 62.7087C86.7545 65.1149 94.7438 67.5904 99.1961 68.0392C101.827 68.3043 101.903 68.3947 102.212 71.6393C102.287 72.432 102.376 73.1527 102.409 73.2408C102.441 73.3289 102.452 73.505 102.433 73.6323C102.414 73.7597 102.674 75.273 103.01 76.9954C105.556 90.017 105.475 92.3367 102.307 97.1347C100.318 100.147 93.1172 105.27 90.8733 105.27C90.7342 105.27 89.3855 105.847 87.8764 106.551C86.3674 107.256 85.0311 107.833 84.9068 107.833C84.7824 107.833 84.0235 108.136 83.2206 108.506C79.6336 110.161 80.2829 110.169 76.36 108.415C74.404 107.541 70.9685 106.04 68.7253 105.079C55.6763 99.4897 53.3412 94.6917 56.2837 79.5145C56.9982 75.8304 57.514 72.7055 57.4309 72.5702C57.3473 72.4348 57.4117 72.2419 57.574 72.1414C57.7363 72.0413 57.7935 71.6701 57.7011 71.317C57.6092 70.9639 57.6971 70.4779 57.8967 70.2368C58.0966 69.9958 58.1742 69.5754 58.0698 69.3024C57.8055 68.6125 58.7575 68.1745 60.9663 67.9696C64.9856 67.5972 72.7934 65.1858 77.1217 62.9798C80.0522 61.4864 79.6232 61.51 81.9947 62.7087ZM63.5701 74.2249C62.4805 75.0829 63.1539 79.0061 64.3902 79.0061C64.5313 79.0061 64.6465 79.2375 64.6465 79.5205C64.6465 79.8036 65.0783 80.5807 65.6061 81.2481C66.1339 81.9155 66.5658 82.6206 66.5658 82.8156C66.5658 83.0105 66.8537 83.4582 67.2055 83.8105C67.958 84.564 68.0512 85.9933 67.3655 86.2571C67.1016 86.3584 66.8856 86.6207 66.8856 86.8397C66.8856 87.0583 66.483 87.7997 65.9908 88.4868C62.3106 93.6231 61.9235 96.6222 64.9404 96.6222C66.5274 96.6222 66.8345 96.3292 68.6646 93.0642C70.7902 89.2715 70.3359 89.3167 72.3516 92.6986C74.5847 96.4445 74.7582 96.6222 76.1889 96.6222C79.157 96.6222 79.065 94.7501 75.835 89.4156C73.0169 84.7609 73.0049 85.6958 75.949 80.8045C78.6716 76.2804 78.9135 75.2923 77.5584 74.2249C75.8506 72.8797 74.9442 73.467 72.4403 77.5399C71.4199 79.2002 70.5071 80.5111 70.4119 80.4522C70.3171 80.3933 69.6722 79.2411 68.9785 77.8911C66.9836 74.0079 65.2971 72.8648 63.5701 74.2249ZM82.1386 74.2125L81.3113 74.8639L81.289 85.1497C81.2638 96.7215 81.2446 96.6222 83.5193 96.6222C85.363 96.6222 85.7173 95.9808 85.8256 92.4476L85.9184 89.4156L88.7973 89.2407C96.4408 88.7758 99.7971 81.3174 94.721 76.077C92.3195 73.5975 84.4078 72.4252 82.1386 74.2125ZM91.4183 79.1386C93.9909 81.3542 91.9125 84.7714 87.9924 84.7714H85.7585V81.5684V78.3655H88.1395C90.1956 78.3655 90.6434 78.4712 91.4183 79.1386ZM45.3842 99.9245C45.9412 101.3 46.6885 102.797 47.0452 103.251C47.4015 103.704 47.693 104.271 47.693 104.51C47.693 104.749 47.9809 105.124 48.3327 105.345C48.6846 105.564 48.9725 105.847 48.9725 105.973C48.9725 106.099 49.3323 106.562 49.7722 107.003C51.0061 108.238 50.857 108.476 46.3335 112.5C44.0024 114.574 41.7224 116.611 41.2666 117.027L40.4381 117.783L39.5445 114.329C39.0531 112.43 38.5025 110.515 38.3205 110.075C38.139 109.634 37.9783 109.13 37.9635 108.954C37.9343 108.604 35.1937 107.21 31.2768 105.552L28.7754 104.494L29.5235 103.949C29.9349 103.648 31.1629 102.562 32.2517 101.534C33.3408 100.506 35.2597 98.8002 36.5164 97.7433C37.7731 96.6863 39.7512 94.9231 40.9119 93.8249L43.0223 91.8282L43.6969 94.6256C44.0679 96.1642 44.8273 98.5488 45.3842 99.9245ZM119.759 94.7033C119.899 94.7017 120.611 95.241 121.341 95.9016C122.072 96.5622 123.542 97.8954 124.608 98.8643C125.675 99.8332 127.524 101.477 128.718 102.518C131.251 104.728 131.357 104.516 126.863 106.255C123.139 107.696 121.715 108.496 121.655 109.178C121.635 109.407 121.083 111.421 120.428 113.653L119.238 117.713L115.424 114.294C113.326 112.414 111.026 110.364 110.312 109.74L109.015 108.604L110.502 106.647C111.32 105.57 111.988 104.532 111.988 104.339C111.988 104.147 112.112 103.989 112.262 103.989C112.581 103.989 114.932 98.9772 115.492 97.1027C115.703 96.398 115.953 95.6053 116.048 95.341C116.143 95.0768 116.277 94.3045 116.346 93.6247C116.547 91.6477 116.796 91.5912 118.2 93.2051C118.918 94.0303 119.62 94.7045 119.759 94.7033Z" fill="#57868B"/>
</svg>
