<svg width="455" height="455" viewBox="0 0 455 455" fill="none" xmlns="http://www.w3.org/2000/svg">
<circle cx="227.5" cy="227.5" r="227.5" fill="#fff"/>
<path d="M326.598 250.184C326.788 250.678 326.559 251.235 326.077 251.453L274.457 274.833C274.328 274.892 274.187 274.923 274.045 274.923H176.762C176.306 274.923 175.908 275.231 175.794 275.673L149.74 376.588C149.625 377.031 149.224 377.34 148.766 377.338L78.4208 376.989C77.7288 376.985 77.2494 376.297 77.4862 375.647L199.467 40.6578C199.611 40.2629 199.986 40 200.407 40H244.573C244.986 40 245.357 40.2536 245.506 40.6385L309.1 204.675L326.598 250.184ZM276.103 238.605C276.792 238.605 277.3 237.995 277.071 237.344C272.35 223.931 231.381 107.446 222.723 79.5209C222.409 78.5063 220.815 78.5465 220.556 79.5768C213.126 109.167 174.141 224.058 169.622 237.349C169.402 237.998 169.907 238.605 170.592 238.605H276.103ZM337.343 278.549C337.855 278.363 338.421 278.62 338.617 279.127L376.463 376.618C376.72 377.279 376.226 377.989 375.518 377.98L303.089 376.992C302.646 376.986 302.26 376.689 302.14 376.262L280.776 300.108C280.635 299.604 280.906 299.076 281.397 298.898L337.343 278.549Z" fill="#000" stroke="#000" stroke-width="0.1" stroke-miterlimit="2" stroke-linejoin="round"/>
</svg>
