<svg width="130" height="41" viewBox="0 0 130 41" fill="none" xmlns="http://www.w3.org/2000/svg">
<path d="M28.971 24.8559C29.1612 25.3504 28.9328 25.9075 28.4501 26.126L23.3292 28.444C23.1997 28.5027 23.0591 28.533 22.9169 28.533H12.3827C11.9268 28.533 11.5286 28.8414 11.4145 29.2829L8.70203 39.7828C8.58752 40.2261 8.18665 40.535 7.72886 40.5327L1.42112 40.5014C0.729001 40.498 0.249565 39.8094 0.486505 39.1591L14.1501 1.65766C14.294 1.26278 14.6694 1 15.0897 1H19.0469C19.4596 1 19.8299 1.25356 19.9792 1.63835L27.2183 20.3L28.971 24.8559ZM22.1015 24.2766C22.7913 24.2766 23.277 23.603 23.0483 22.9522C22.0752 20.1836 19.794 13.6765 18.3008 9.2871C17.9588 8.28159 16.0629 8.3218 15.7455 9.33537C14.3616 13.7544 12.1879 20.2142 11.2579 22.9616C11.0382 23.6109 11.5236 24.2766 12.209 24.2766H22.1015ZM29.7187 29.2531C30.2297 29.0673 30.7956 29.324 30.9925 29.8309L34.644 39.2315C34.9007 39.8924 34.4071 40.6032 33.6982 40.5935L27.1729 40.5045C26.7298 40.4985 26.3435 40.2016 26.2238 39.7749L24.1181 32.2732C23.9767 31.7695 24.2475 31.2419 24.7392 31.0631L29.7187 29.2531Z" fill="#121314" stroke="#121314" stroke-width="0.1" stroke-miterlimit="2" stroke-linejoin="round"/>
<path d="M79.9847 29.0861L79.9841 29.0846C79.7026 28.365 79.3835 27.7821 78.9862 27.475C78.7713 27.2929 78.4864 27.1932 78.1955 27.1342C77.8886 27.072 77.5196 27.0445 77.0979 27.0445H76.9477C76.1193 27.0445 75.4477 27.7161 75.4477 28.5445V38.7273C75.4477 39.0035 75.2238 39.2273 74.9477 39.2273H70.1096C69.8334 39.2273 69.6096 39.0035 69.6096 38.7273V11.3865C69.6096 11.1103 69.8334 10.8865 70.1096 10.8865H79.9416C83.7022 10.8865 86.1454 11.8667 87.4616 13.674C88.6069 15.3258 89.1846 17.2428 89.1846 19.4439C89.1846 22.3394 88.2289 24.3199 86.3988 25.5147C85.8893 25.8473 85.6227 26.4111 85.5413 26.9545C85.4598 27.4991 85.5504 28.1032 85.8512 28.5814C85.9385 28.7201 86.013 28.8627 86.0751 29.0092L89.8308 38.5441C89.96 38.8722 89.7182 39.2273 89.3656 39.2273H84.2574C84.0509 39.2273 83.8657 39.1005 83.7912 38.908L79.9847 29.0861ZM82.2426 23.5984L82.2426 23.5984C82.9882 22.3964 83.3465 20.9391 83.3465 19.2525C83.3465 17.5637 82.9874 16.035 82.2581 14.6784C81.5056 13.2788 80.4074 12.5016 78.9734 12.5016H76.9477C76.1193 12.5016 75.4477 13.1732 75.4477 14.0016V23.9932C75.4477 24.8216 76.1193 25.4932 76.9477 25.4932H78.9734C80.3718 25.4932 81.4737 24.8376 82.2426 23.5984ZM125.579 11.1064L125.165 10.8269L125.579 11.1064C125.672 10.9689 125.827 10.8865 125.993 10.8865H127.647C128.046 10.8865 128.284 11.3318 128.062 11.6641L120.261 23.3501C119.934 23.8398 119.924 24.4754 120.235 24.9754L120.659 24.7112L120.235 24.9754L128.626 38.4632C128.833 38.7963 128.593 39.2273 128.201 39.2273H122.75C122.577 39.2273 122.417 39.138 122.325 38.9912L116.786 30.0734C116.209 29.1442 114.864 29.1254 114.261 30.038L108.337 39.003C108.245 39.1431 108.088 39.2273 107.92 39.2273H106.311C105.914 39.2273 105.675 38.7866 105.892 38.454L113.611 26.6298C113.93 26.1411 113.937 25.5116 113.628 25.0163L105.297 11.651C105.089 11.3179 105.329 10.8865 105.721 10.8865H111.166C111.34 10.8865 111.501 10.9768 111.592 11.125L117.023 19.9771C117.593 20.9067 118.934 20.9363 119.544 20.0328L125.579 11.1064ZM44.9369 36.7831C45.213 36.7831 45.4369 37.0069 45.4369 37.2831V38.7273C45.4369 39.0035 45.213 39.2273 44.9369 39.2273H31.3848C31.1086 39.2273 30.8848 39.0035 30.8848 38.7273V11.3865C30.8848 11.1103 31.1086 10.8865 31.3848 10.8865H36.2228C36.499 10.8865 36.7228 11.1103 36.7228 11.3865V35.2831C36.7228 36.1115 37.3944 36.7831 38.2228 36.7831H44.9369ZM65.3938 10.8865C65.6699 10.8865 65.8938 11.1103 65.8938 11.3865V12.8308C65.8938 13.107 65.6699 13.3308 65.3938 13.3308H60.2534C59.4249 13.3308 58.7534 14.0024 58.7534 14.8308V38.7273C58.7534 39.0035 58.5295 39.2273 58.2534 39.2273H53.4755C53.1994 39.2273 52.9755 39.0035 52.9755 38.7273V14.8308C52.9755 14.0024 52.3039 13.3308 51.4755 13.3308H46.2137C45.9376 13.3308 45.7137 13.107 45.7137 12.8308V11.3865C45.7137 11.1103 45.9376 10.8865 46.2137 10.8865H65.3938ZM101.22 38.7273C101.22 39.0035 100.997 39.2273 100.72 39.2273H95.8823C95.6062 39.2273 95.3823 39.0035 95.3823 38.7273V11.3865C95.3823 11.1103 95.6062 10.8865 95.8823 10.8865H100.72C100.997 10.8865 101.22 11.1103 101.22 11.3865V38.7273Z" fill="#121314" stroke="#121314"/>
</svg>
