<svg width="160" height="160" viewBox="0 0 160 160" fill="none" xmlns="http://www.w3.org/2000/svg">
<path fill-rule="evenodd" clip-rule="evenodd" d="M68.0065 0.166054C67.9154 0.257684 66.3444 0.617402 64.5156 0.966316C62.6867 1.31483 59.576 2.04747 57.6021 2.59445C55.6285 3.14143 53.918 3.56116 53.8005 3.52755C53.683 3.49394 53.4819 3.63679 53.3532 3.84526C53.2245 4.05332 52.7408 4.24579 52.2783 4.2726C51.8158 4.2994 51.4372 4.43785 51.4372 4.5803C51.4368 4.72274 51.3053 4.75795 51.1442 4.65832C50.9835 4.55909 50.8037 4.5967 50.7445 4.74235C50.6857 4.8876 49.2703 5.55542 47.5993 6.22603C45.9284 6.89665 43.7698 7.85737 42.8025 8.36113C39.6061 10.0253 38.4381 10.7447 34.0281 13.7645C33.6424 14.0286 32.8921 14.5327 32.3604 14.8849C29.6238 16.6983 19.7734 26.0553 17.4253 29.0723C14.5696 32.7423 12.4222 35.7509 12.4222 36.0826C12.4222 36.1918 12.1943 36.5335 11.9161 36.8412C10.4842 38.425 6.3709 46.7753 4.8351 51.2167C4.56088 52.009 4.17952 52.8569 3.98725 53.1005C3.79497 53.3446 3.63028 53.7047 3.62149 53.9008C3.61269 54.0973 3.2933 55.2661 2.91195 56.4985C0.321628 64.8708 -0.146468 69.017 0.0346148 81.9824C0.201706 93.9391 0.410371 95.382 3.33847 104.834C3.66586 105.891 3.91689 106.935 3.89611 107.155C3.87572 107.375 3.97326 107.555 4.11317 107.555C4.25268 107.555 4.58206 108.167 4.84429 108.916C5.10652 109.664 5.69414 111.104 6.14945 112.117C6.60515 113.129 6.90575 113.957 6.81781 113.957C6.58796 113.957 8.58027 117.844 10.3455 120.839C19.1422 135.768 32.721 147.714 48.079 154.038C49.4861 154.617 50.6825 155.191 50.7381 155.313C50.7933 155.435 51.0267 155.463 51.2566 155.374C51.486 155.286 51.8726 155.402 52.1152 155.632C52.3578 155.863 52.8439 156.099 53.1957 156.157C53.5475 156.215 54.6731 156.535 55.6973 156.867C63.9851 159.559 69.402 160.186 82.3824 159.956C93.7058 159.756 100.744 158.597 106.87 155.924C107.721 155.552 108.549 155.33 108.708 155.429C108.869 155.528 108.999 155.441 108.999 155.236C108.999 155.03 109.215 154.945 109.479 155.046C109.743 155.148 109.959 155.114 109.959 154.971C109.959 154.829 111.002 154.301 112.277 153.798C125.603 148.546 139.62 136.519 148.002 123.147C150.159 119.705 152.779 114.916 152.968 114.068C153.193 113.056 155.197 108.361 155.451 108.248C155.584 108.189 155.612 108.009 155.512 107.848C155.413 107.687 155.508 107.555 155.724 107.555C155.939 107.555 156.031 107.47 155.927 107.366C155.823 107.262 155.95 106.578 156.21 105.846C160.566 93.5554 161.265 73.2595 157.797 59.7723C157.173 57.3475 156.509 55.076 156.322 54.7243C156.133 54.3722 156.061 53.9532 156.159 53.7932C156.258 53.6327 156.19 53.4098 156.009 53.2974C155.827 53.185 155.762 52.9589 155.863 52.7952C155.964 52.6312 155.879 52.4972 155.674 52.4972C155.469 52.4972 155.384 52.2811 155.485 52.017C155.586 51.7529 155.557 51.5368 155.421 51.5368C155.191 51.5368 154.296 49.6402 153.609 47.6956C152.57 44.7522 149.047 38.3485 145.947 33.769C137.978 21.9952 123.343 10.2409 110.998 5.70026C109.899 5.29573 108.999 4.84758 108.999 4.70434C108.999 4.56109 108.856 4.53268 108.68 4.64152C108.504 4.75035 108.36 4.69113 108.36 4.51027C108.36 4.32941 108.144 4.26419 107.88 4.36583C107.616 4.46706 107.401 4.41464 107.401 4.24899C107.401 4.08333 107.221 3.93969 107.001 3.92968C106.781 3.92008 104.814 3.38791 102.63 2.7481C94.4337 0.346113 91.4733 0 79.1309 0C73.104 0 68.098 0.0748244 68.0065 0.166054ZM65.7783 28.4641C66.9068 29.0407 66.9796 29.1667 66.9344 30.4648C66.9076 31.227 66.9716 31.9945 67.0763 32.1705C67.181 32.3466 67.4109 32.9796 67.5872 33.577C68.5425 36.8152 74.3296 36.8876 77.996 33.7066L79.0989 32.7499L87.174 32.9404C91.6156 33.0452 95.2492 33.044 95.2488 32.938C95.2484 32.8319 96.6439 32.6471 98.3492 32.527C100.055 32.407 102.75 32.0845 104.338 31.81C105.927 31.5355 107.517 31.275 107.873 31.231C108.229 31.187 109.036 30.9293 109.667 30.6584C110.298 30.3875 111.161 30.0606 111.586 29.9318C112.01 29.8033 112.721 29.358 113.165 28.9427C114.514 27.6806 116.109 27.7639 116.673 29.1255C116.89 29.6513 117.186 30.009 117.329 29.9206C117.472 29.8317 117.665 29.8818 117.757 30.0314C117.85 30.1807 118.347 30.2411 118.863 30.1655C120.543 29.9186 122.751 32.1201 122.751 34.0427C122.751 34.5029 123.326 36.109 124.03 37.6123C124.733 39.1156 125.309 40.458 125.309 40.5953C125.309 40.7329 125.488 41.0242 125.706 41.2427C126.682 42.2194 130.643 50.0387 131.489 52.6572C133.016 57.3856 132.836 58.3527 129.904 61.1668C125.202 65.6783 123.955 68.1751 126.508 67.9686C127.979 67.8498 130.637 69.093 131.514 70.3102C132.201 71.2621 132.29 72.7782 131.88 76.5626L131.615 79.021L132.939 80.6856C134.045 82.0768 134.263 82.5858 134.263 83.7798C134.263 85.6192 134.908 86.5127 138.028 88.9931C139.387 90.0734 140.751 91.1614 141.059 91.4107C141.815 92.0229 141.769 92.8303 140.979 92.8303C139.998 92.8303 140.185 93.9035 141.458 95.5728C142.463 96.8909 142.787 97.8044 142.585 98.7523C142.548 98.9283 142.463 99.3441 142.397 99.6766C142.191 100.721 141.273 101.438 139.875 101.648C138.198 101.899 138.083 101.98 137.141 103.554C136.72 104.258 136.285 104.906 136.173 104.994C136.062 105.082 135.383 106.307 134.664 107.715C133.945 109.124 132.697 111.425 131.891 112.829C131.085 114.233 130.426 115.52 130.426 115.689C130.426 115.858 130.154 116.582 129.822 117.297C128.479 120.192 128.462 120.493 129.568 121.997C130.383 123.107 130.577 123.681 130.581 124.986C130.585 126.468 130.645 126.595 131.303 126.526C131.855 126.467 132.13 126.714 132.502 127.605C133.196 129.267 133.063 130.575 132.279 129.79C132.185 129.696 130.974 129.571 129.588 129.514C125.003 129.322 121.052 128.023 120.481 126.519C119.84 124.832 113.034 124.026 111.718 125.481C111.4 125.833 110.97 126.121 110.763 126.121C110.556 126.121 110.188 126.494 109.944 126.949C109.116 128.498 107.852 128.858 106.599 127.902C105.472 127.041 104.249 126.843 103.665 127.427C103.427 127.666 102.967 127.675 102.183 127.459C100.845 127.089 100.651 127.251 99.0927 130.042C97.9015 132.177 97.6349 132.404 96.9721 131.854C96.5883 131.535 96.2622 131.531 95.4283 131.832C93.8589 132.4 92.6981 131.701 93.6247 130.747C94.261 130.091 93.6514 128.77 92.7892 128.935C91.9697 129.092 90.1341 127.438 90.1325 126.54C90.1321 126.33 89.9866 126.069 89.8091 125.96C89.3406 125.67 88.213 126.096 88.213 126.563C88.213 126.781 87.9539 127.24 87.6374 127.581C87.3204 127.923 86.9686 128.446 86.8551 128.743C86.1923 130.481 83.9258 130.536 83.1511 128.834C82.9664 128.429 82.5263 128.005 82.1729 127.893C81.4869 127.675 81.0057 126.659 81.3358 126.124C81.4454 125.946 81.3826 125.801 81.1963 125.801C81.01 125.801 80.8577 125.585 80.8577 125.321C80.8577 125.05 80.5719 124.841 80.203 124.841C79.4683 124.841 77.9796 123.396 77.9796 122.683C77.9796 121.518 76.7228 120.424 75.1818 120.247C74.346 120.152 73.1228 119.978 72.4632 119.861C71.6709 119.721 71.264 119.77 71.264 120.004C71.264 121.286 67.8406 120.133 67.3253 118.679C67.2162 118.371 66.852 118.119 66.5163 118.119C65.7452 118.119 65.0596 117.315 65.2987 116.691C65.5297 116.088 64.2066 115.076 63.8796 115.605C63.5614 116.12 61.6018 115.68 60.7728 114.907C59.1758 113.417 57.6088 113.789 58.6674 115.407C59.3549 116.457 59.0427 117.111 57.5793 117.687C56.9121 117.949 56.2281 118.477 56.0598 118.86C55.3647 120.441 53.3076 119.91 52.2787 117.884C51.7526 116.848 50.9875 116.027 49.8207 115.248C47.6761 113.817 47.6005 113.533 49.0076 112.205C50.2876 110.997 50.3807 110.7 49.6672 110.107C49.3062 109.807 48.9892 109.788 48.468 110.036C46.347 111.041 45.6766 111.172 45.113 110.687C44.8096 110.426 44.3083 110.124 43.9989 110.014C43.6895 109.904 43.2694 109.446 43.0647 108.997C42.6773 108.146 42.3911 108.036 39.7852 107.734C37.8165 107.506 36.8035 106.858 36.2155 105.45C35.7007 104.216 34.1681 103.822 34.1681 104.923C34.1681 105.973 33.2343 106.915 32.1937 106.915C31.3307 106.915 31.24 106.83 31.4234 106.195C32.155 103.662 32.1586 96.8592 31.4286 95.6773C31.3227 95.5052 30.6563 95.1323 29.948 94.8486C28.698 94.348 28.6652 94.2964 28.8283 93.0808C28.9698 92.0229 28.8519 91.6647 28.0644 90.7669C26.9172 89.4592 26.912 89.1335 27.9997 86.9132C28.8415 85.1958 28.8507 85.1162 28.3195 84.2159C28.0185 83.7057 27.7722 82.8239 27.7722 82.2565C27.7722 81.5262 27.4444 80.8612 26.6529 79.9841C25.4081 78.6049 25.3134 78.0715 26.0134 76.3942C26.822 74.4571 26.4503 73.9342 23.0437 72.2176C19.5571 70.4606 19.394 69.4895 21.9668 65.8131C23.8871 63.069 23.9271 62.398 22.4025 58.4999C21.6966 56.6949 21.0362 54.9628 20.935 54.6507C20.748 54.0729 20.5501 53.9636 19.1378 53.6583C18.0445 53.4219 17.076 52.6676 17.3326 52.2523C17.4773 52.0182 17.9466 52.069 18.824 52.4135C20.3878 53.0285 20.6592 52.8125 20.1376 51.3676C19.4232 49.3905 19.9221 48.7983 22.179 48.9456C22.8838 48.9916 23.5154 48.6887 24.5343 47.8156C25.9158 46.632 33.911 43.0633 34.3028 43.4554C34.4043 43.5574 34.4879 43.4642 34.4879 43.2485C34.4879 43.0329 34.6318 42.9452 34.8076 43.0541C34.9835 43.1629 35.1274 43.0993 35.1274 42.9128C35.1274 42.7264 35.4085 42.5739 35.7518 42.5739C36.0956 42.5739 36.7072 42.4415 37.1109 42.2798C38.5776 41.6928 39.1392 41.5128 39.8995 41.3859C41.2635 41.1586 41.7771 40.6945 42.5686 38.9743C43.4716 37.0117 45.7206 34.6401 46.9218 34.3836C48.4132 34.0651 50.2636 33.1792 52.8759 31.5331C58.4151 28.0428 62.8758 26.982 65.7783 28.4641ZM69.6958 30.4315C70.7423 31.1778 70.9542 32.3306 70.0448 32.3306C69.1202 32.3306 67.4772 30.456 68.0716 30.0794C68.6945 29.6853 68.6285 29.6713 69.6958 30.4315Z" fill="#57868B"/>
</svg>
