<svg width="160" height="160" viewBox="0 0 160 160" fill="none" xmlns="http://www.w3.org/2000/svg">
<path fill-rule="evenodd" clip-rule="evenodd" d="M64.3091 0.925031C58.6214 2.14277 51.9904 4.20454 47.5136 6.14683C45.2578 7.12559 42.0386 8.72344 41.5951 9.08431C41.3312 9.29923 40.3235 9.87823 39.3557 10.371C38.388 10.8634 37.3803 11.456 37.1163 11.6882C35.6239 12.9998 34.567 13.7171 34.1267 13.7171C33.8532 13.7171 33.5141 13.8979 33.3733 14.1189C33.2326 14.3398 32.2536 15.167 31.1979 15.9569C28.4558 18.0086 19.455 26.9129 17.2492 29.7558C16.2223 31.079 15.1258 32.4503 14.8122 32.8031C14.4987 33.156 14.2424 33.5201 14.2424 33.6123C14.2424 33.8629 12.087 37.2122 11.5283 37.8305C10.7893 38.648 6.83395 46.6245 5.9094 49.1626C5.45912 50.3976 4.96965 51.6967 4.82089 52.0496C-0.438522 64.5445 -1.56742 85.7557 2.29116 99.5842C2.67585 100.962 3.00257 102.415 3.01776 102.812C3.03296 103.209 3.14773 103.534 3.2725 103.534C3.39726 103.534 3.78556 104.436 4.13507 105.539C6.2577 112.234 9.60322 119.337 12.3109 122.896C12.7576 123.483 13.1227 124.056 13.1227 124.17C13.1227 124.284 13.3318 124.631 13.5874 124.942C13.8425 125.253 14.8862 126.687 15.9067 128.13C19.3022 132.933 25.3894 139.21 30.2381 142.908C31.2939 143.714 32.2056 144.495 32.2644 144.643C32.3228 144.792 32.5667 144.914 32.8059 144.914C33.0454 144.914 33.4421 145.201 33.6876 145.553C33.9336 145.905 34.2295 146.097 34.3459 145.981C34.4618 145.864 34.557 145.937 34.557 146.143C34.557 146.349 34.7729 146.517 35.0369 146.517C35.3008 146.517 35.5168 146.662 35.5168 146.838C35.5168 147.015 35.6591 147.159 35.8331 147.159C36.007 147.159 36.4425 147.412 36.8008 147.72C39.89 150.382 49.6002 154.647 58.3971 157.207C70.2883 160.668 87.3254 160.943 99.0199 157.863C100.779 157.4 102.975 156.864 103.899 156.672C104.822 156.48 105.578 156.21 105.578 156.072C105.578 155.933 105.839 155.82 106.158 155.82C106.477 155.82 107.305 155.547 107.998 155.214C108.69 154.881 109.977 154.367 110.857 154.073C114.194 152.955 121.005 149.35 123.831 147.205C124.768 146.494 125.635 145.976 125.76 146.053C125.884 146.13 126.076 145.956 126.187 145.668C126.297 145.379 126.478 145.233 126.588 145.343C126.698 145.453 127.018 145.289 127.3 144.979C127.582 144.668 128.46 143.918 129.252 143.312C134.265 139.474 139.917 133.766 143.628 128.795C144.385 127.78 145.14 126.95 145.305 126.95C145.47 126.95 145.53 126.828 145.438 126.678C145.345 126.528 145.553 126.101 145.899 125.729C146.244 125.357 146.527 124.902 146.527 124.718C146.527 124.534 146.671 124.384 146.847 124.384C147.023 124.384 147.167 124.168 147.167 123.903C147.167 123.638 147.288 123.422 147.436 123.422C147.583 123.422 147.866 123.097 148.064 122.7C148.261 122.303 148.938 121.112 149.567 120.054C151.614 116.611 153.807 111.798 155.194 107.704C155.941 105.498 156.636 103.622 156.739 103.534C156.841 103.446 156.951 103.085 156.985 102.732C157.017 102.379 157.406 100.674 157.849 98.9423C161.721 83.7829 160.262 63.4687 154.308 49.6438C154.194 49.3791 154.085 49.0904 154.065 49.0022C153.522 46.5407 146.827 34.5461 145.557 33.7586C145.381 33.65 145.32 33.4262 145.421 33.2622C145.522 33.0978 145.453 32.9635 145.266 32.9635C145.08 32.9635 144.928 32.7991 144.928 32.5978C144.928 32.3969 144.738 32.0722 144.507 31.8761C144.275 31.6804 142.989 30.1487 141.65 28.4727C138.81 24.9185 133.712 19.8904 129.941 16.9248C128.483 15.7781 127.058 14.6233 126.774 14.3586C126.491 14.094 126.172 13.8775 126.068 13.8775C125.962 13.8775 125.16 13.3522 124.285 12.7103C123.41 12.0687 122.154 11.2387 121.494 10.8658C120.834 10.4933 119.754 9.87582 119.095 9.4937C118.435 9.11118 117.319 8.47204 116.615 8.07267C113.076 6.06583 102.427 2.39418 96.0355 0.977959C92.4393 0.180836 91.8658 0.147556 80.4648 0.0749809L68.628 0L64.3091 0.925031ZM84.9725 18.8555C89.5464 20.0263 95.4677 24.4706 96.8397 27.763C97.2744 28.8059 97.3724 28.8612 98.4809 28.6868C99.1291 28.5846 100.594 28.3564 101.734 28.1796C103.758 27.8664 108.391 28.2361 108.776 28.7413C108.865 28.858 109.117 28.9683 109.337 28.9859C109.557 29.0036 110.022 29.0397 110.371 29.0661C110.964 29.111 113.256 31.0561 113.256 31.5144C113.256 33.2727 111.14 34.089 108.872 33.2061C106.349 32.2241 101.208 32.2374 98.4473 33.2326C96.0123 34.1103 95.3905 33.8216 94.1852 31.2554C88.7483 19.6819 71.7536 19.653 65.9047 31.2073C64.5095 33.9631 63.9796 34.1941 61.2223 33.247C57.2742 31.8909 49.8346 32.569 48.2986 34.425C48.0874 34.6797 47.7347 34.8882 47.5144 34.8882C46.527 34.8882 43.0304 38.9989 42.013 41.3562C40.3095 45.3021 39.9624 51.1053 41.3312 52.7589C42.5393 54.2184 50.8447 52.9722 50.8671 51.3278C50.8703 51.1073 51.0166 50.9268 51.1926 50.9268C51.3686 50.9268 51.5125 50.7155 51.5125 50.4569C51.5125 50.1987 51.8004 49.8326 52.1523 49.6438C52.5043 49.4549 52.7922 49.1017 52.7922 48.8583C52.7922 48.252 57.7397 43.6818 59.5104 42.6525C60.3022 42.1922 61.022 41.7166 61.11 41.5955C61.7702 40.6878 70.5303 36.8489 70.9594 37.2795C71.0525 37.3726 71.3001 37.306 71.5096 37.1316C72.397 36.393 82.1088 35.6652 83.0766 36.2651C83.2609 36.3794 83.7372 36.4102 84.1347 36.3332C84.9633 36.1733 87.9709 36.7499 88.4923 37.1685C88.6843 37.3224 88.9162 37.3738 89.0078 37.2819C89.3721 36.9167 97.372 40.2323 97.9002 40.9676C97.9882 41.0899 98.2761 41.2868 98.5401 41.4051C101.288 42.6373 108.457 49.2977 108.457 50.6185C108.457 50.7993 108.673 51.0299 108.937 51.1317C109.201 51.2332 109.417 51.4437 109.417 51.5989C109.417 52.9574 118.06 54.1406 118.832 52.8876C120.527 50.1381 119.483 43.6501 116.551 38.7154C115.015 36.1304 115.764 34.403 118.16 35.006C121.161 35.7615 125.33 47.837 123.489 50.4457C123.364 50.6221 123.328 51.2893 123.408 51.9285L123.554 53.0905L125.688 53.2436C131.204 53.6394 134.913 57.1944 135.704 62.8432C136.377 67.6532 135.887 81.9208 134.976 84.0339C134.089 86.0909 132.59 88.1366 131.97 88.1366C131.744 88.1366 131.473 88.3624 131.368 88.6382C131.262 88.9141 131.031 89.0496 130.854 88.9398C130.677 88.8303 130.532 88.9017 130.532 89.0989C130.532 89.2962 130.388 89.3684 130.212 89.2593C130.036 89.1503 129.892 89.1908 129.892 89.3491C129.892 89.9001 128.119 90.459 125.733 90.6607L123.333 90.8632L123.479 91.9859C123.985 95.8849 123.546 99.7679 122.225 103.076C121.048 106.023 121.048 106.017 122.089 108.466C122.549 109.546 123.045 110.719 123.192 111.072C123.662 112.202 124.819 114.819 126.597 118.771C128.613 123.251 128.95 125.018 128.121 126.769C126.322 130.569 123.188 130.373 110.109 125.643C107.805 124.81 107.64 124.842 107.086 126.229C106.821 126.89 106.214 128.297 105.737 129.356C105.26 130.415 104.651 131.786 104.384 132.403C101.502 139.071 101.09 139.82 99.8389 140.663C97.6979 142.104 95.7368 141.996 93.8477 140.333C92.6656 139.292 91.9406 137.89 89.4153 131.762C87.1059 126.158 86.3381 124.851 85.4147 124.952C81.8853 125.341 77.4504 125.382 75.9253 125.04C74.1025 124.631 72.9468 125.073 72.9468 126.18C72.9468 126.408 72.4582 127.577 71.8611 128.777C71.2637 129.978 70.5551 131.609 70.2863 132.403C69.3198 135.257 67.4431 138.999 66.4686 140.016C63.9136 142.681 59.7787 141.862 58.2439 138.387C56.6516 134.781 52.9273 126.384 52.639 125.75C52.2083 124.801 52.7002 124.702 44.3292 127.437C35.0345 130.475 33.2945 130.338 31.8153 126.455C30.5097 123.027 33.9388 116.111 36.4701 117.067C38.1245 117.693 38.1505 118.763 36.5865 121.932C34.9513 125.245 35.6787 126.184 38.8511 124.855C39.4961 124.585 40.1491 124.441 40.3023 124.536C40.4554 124.631 40.629 124.585 40.6882 124.434C40.783 124.19 45.4829 122.493 46.4846 122.34C46.6986 122.307 47.0297 122.183 47.2205 122.063C47.4112 121.944 48.0086 121.768 48.5485 121.672C49.088 121.577 50.3748 121.235 51.4085 120.913C53.5664 120.239 54.8736 120.475 55.2147 121.599C55.3315 121.984 55.6142 122.516 55.8426 122.78C56.2333 123.233 57.5677 126.237 60.7997 133.943C62.7707 138.642 63.131 138.554 65.7479 132.724C66.8169 130.342 67.9414 127.926 68.2461 127.354C68.5512 126.783 68.7767 126.278 68.7471 126.232C68.7176 126.186 68.9827 125.571 69.3362 124.865C70.0492 123.441 69.9708 122.846 68.9775 122.152C67.4407 121.077 64.7846 118.324 63.5981 116.576C62.5436 115.023 62.2089 114.736 61.6382 114.9C55.8878 116.548 48.9104 115.175 44.0717 111.444C42.1654 109.974 41.7907 109.977 41.0617 111.471C39.0506 115.588 35.9974 112.806 37.8945 108.585L39.0534 106.007L37.8533 103.247L36.6536 100.486L36.6273 95.6748L36.6009 90.8632L34.2191 90.6775C31.7565 90.4855 29.4384 89.7188 29.4384 89.0965C29.4384 88.9005 29.2932 88.8303 29.116 88.9402C28.645 89.2321 26.0253 86.3615 25.1943 84.643C24.4969 83.2003 24.4797 82.896 24.4797 72.0979V61.0312L25.3151 59.2457C26.9618 55.724 30.2362 53.5339 34.2871 53.2432C36.4573 53.0873 36.7152 52.9136 36.4969 51.7565C36.3333 50.89 36.5881 43.7094 36.7824 43.7094C36.8144 43.7094 36.8964 43.2784 36.9648 42.7515C37.0327 42.2251 37.2399 41.7435 37.4246 41.6817C37.609 41.62 37.6786 41.4376 37.5794 41.2764C37.4798 41.1148 37.575 40.9829 37.7906 40.9829C38.0061 40.9829 38.0897 40.8894 37.9757 40.7752C37.5298 40.3285 39.9504 36.5542 42.075 34.3833C46.801 29.5545 52.6386 27.3127 58.2307 28.1788C59.3744 28.356 60.834 28.5838 61.4747 28.6848C62.5964 28.8616 62.6712 28.8115 63.5245 27.3071C65.8623 23.1875 71.1653 19.5901 76.6259 18.4196C78.4194 18.0351 82.6247 18.2548 84.9725 18.8555ZM73.7466 40.855C66.7909 42.5226 61.1056 45.6846 56.8495 50.2536C54.0686 53.2384 52.1228 53.0007 80.0694 53.0941L104.618 53.1763V52.5135C104.618 51.0965 99.2131 46.2961 95.1809 44.1321C88.9898 40.8092 79.7986 39.4043 73.7466 40.855ZM31.1627 58.5091C28.3371 60.4306 28.2115 60.9827 28.1847 71.6168C28.1563 82.9309 28.4102 83.9678 31.6126 85.6193L33.073 86.3724H80.1477H127.223L128.772 85.41C131.778 83.5435 131.852 83.2003 131.744 71.5943L131.651 61.6166L130.736 60.2926C128.749 57.4193 133.476 57.6631 79.7686 57.6631H32.4068L31.1627 58.5091ZM62.1709 61.8857C64.2228 62.9815 64.1128 63.6912 61.2851 67.6071L58.901 70.9087L59.3828 72.0646C59.6476 72.7006 60.1946 73.5815 60.5985 74.0226C63.7341 77.446 64.8762 80.1902 63.6693 81.4004C62.4248 82.6482 61.0284 82.0183 59.5328 79.5343C56.6356 74.7219 56.4556 74.701 53.4976 78.8342C50.9867 82.343 49.9549 82.8519 48.6705 81.2143C47.7067 79.9862 47.7103 79.9769 50.7335 75.6525C53.7427 71.3477 53.8687 70.8244 52.3011 69.1292C51.8672 68.6604 51.5125 68.1259 51.5125 67.9419C51.5125 67.7579 51.3686 67.6071 51.1926 67.6071C51.0166 67.6071 50.8727 67.3906 50.8727 67.1259C50.8727 66.8613 50.7647 66.644 50.6327 66.6428C49.4898 66.6319 48.6069 63.3901 49.4827 62.4198C50.7291 61.0388 51.9056 61.6014 53.9487 64.5561C56.2365 67.8649 56.2233 67.8637 58.2163 64.9022C60.3078 61.7943 61.0044 61.2626 62.1709 61.8857ZM76.5199 62.2454C83.3417 65.1255 81.445 74.3658 73.9066 74.9769L71.8271 75.1453L71.6608 77.9256C71.432 81.7432 69.9512 83.2083 68.1481 81.4004C67.3847 80.6349 67.1464 64.5846 67.8746 62.9823C68.5584 61.4767 73.6679 61.0412 76.5199 62.2454ZM106.686 62.285C111.267 64.2177 111.883 70.2406 107.778 72.964C106.138 74.0526 106.186 74.286 108.617 77.0819C110.927 79.7372 111.045 80.1181 109.911 81.2544C108.499 82.6706 107.785 82.2781 104.139 78.0836C102.395 76.0779 102.059 76.1497 102.059 78.5278C102.059 81.4192 100.145 83.0171 98.4853 81.511C97.7935 80.8831 97.5735 64.0068 98.2409 62.7562C98.9619 61.4057 103.944 61.1279 106.686 62.285ZM124.693 62.1503C126.754 63.4102 125.472 66.0036 122.788 66.0028H121.414L121.505 73.1493L121.597 80.2961L120.624 81.2304C119.789 82.0331 119.528 82.1213 118.78 81.8575C117.25 81.3178 117.105 80.5535 117.1 72.98L117.095 66.0032H115.567C112.632 66.0032 111.697 62.8933 114.315 61.8364C115.829 61.2249 123.562 61.4587 124.693 62.1503ZM43.9357 62.2021C46.6698 63.6451 44.9015 66.0501 40.9149 66.31L38.236 66.4844L38.1716 68.0081L38.1069 69.5317H39.7732C42.8412 69.5317 44.4744 70.3553 44.4744 71.9023C44.4744 73.3578 43.3555 74.0226 40.9061 74.0226C38.5471 74.0226 38.1748 74.2996 38.258 75.9909C38.3412 77.6854 38.5092 77.7945 41.2192 77.918C44.9279 78.0868 46.1079 79.3542 44.2708 81.1963C43.4506 82.0187 43.3191 82.0419 39.4721 82.0419C33.8148 82.0419 34.2371 82.8451 34.2371 72.0835V63.4078L35.0225 62.6207C35.9126 61.7281 42.4553 61.4206 43.9357 62.2021ZM93.5226 62.2021C96.1875 63.6086 94.4999 66.0329 90.6661 66.3051L88.1428 66.4844L88.0472 67.964L87.9513 69.4431L90.1963 69.6043C95.4809 69.9836 95.7832 73.9063 90.5422 74.0959L88.1428 74.183L88.0468 76.0274L87.9509 77.8718H90.351C94.156 77.8718 95.6024 79.0736 94.1488 81.0275C93.5246 81.8671 93.4422 81.8831 89.3389 81.9709L85.1644 82.06L84.4942 81.2059C83.4337 79.8542 83.4557 63.7109 84.5194 62.5758C85.3164 61.7253 92.087 61.4442 93.5226 62.2021ZM102.006 67.9026L101.899 70.1232L103.259 70.2306C104.007 70.29 104.618 70.2134 104.618 70.061C104.618 69.9086 104.834 69.8669 105.098 69.9684C105.362 70.0702 105.578 70.0049 105.578 69.8236C105.578 69.6424 105.707 69.5738 105.865 69.6713C106.449 70.0337 106.805 67.563 106.286 66.745C105.94 66.1985 104.433 65.6824 103.184 65.6824H102.112L102.006 67.9026ZM71.7472 66.3609C71.2369 66.887 71.2249 69.9223 71.7312 70.4299C73.1692 71.8718 77.047 69.9532 76.5959 68.0229C76.1988 66.3224 72.8857 65.1869 71.7472 66.3609ZM45.2966 90.7028L41.1597 90.8632L40.8829 91.8255C38.5655 99.8862 45.0354 110.074 53.1121 111.082C56.368 111.489 60.153 111.203 62.2897 110.388C63.9908 109.74 65.2337 110.465 65.9023 112.496C66.1382 113.212 66.4518 113.799 66.5997 113.799C66.7477 113.799 66.8684 113.949 66.8684 114.133C66.8684 114.317 67.0484 114.691 67.2683 114.965C73.7746 123.07 84.6597 123.593 91.6995 116.138C92.2481 115.557 92.608 115.079 92.4993 115.077C92.3909 115.074 92.4733 114.963 92.6828 114.829C92.8924 114.695 93.4682 113.811 93.9625 112.863C95.3681 110.168 96.0511 109.796 98.1997 110.555C99.9825 111.184 106.296 111.318 108.61 110.775C115.109 109.251 120.42 100.792 119.361 93.6519C118.9 90.544 119.232 90.7453 114.461 90.684L110.388 90.6318L108.52 93.1535C107.492 94.5401 105.57 96.6852 104.249 97.9202C102.106 99.9222 101.269 100.565 98.2201 102.551C89.7876 108.045 77.6192 109.219 67.6958 105.496C66.135 104.911 65.0213 104.332 60.7901 101.907C57.9828 100.298 54.0362 96.5654 51.149 92.7878L49.4331 90.5424L45.2966 90.7028ZM79.905 90.6246C50.8139 90.7221 52.7078 90.1491 60.2318 96.5766C69.5002 104.494 85.6607 105.569 96.5014 98.9912C100.409 96.6199 105.637 91.192 104.577 90.6078C104.512 90.5717 93.4094 90.5793 79.905 90.6246ZM115.318 111.835C111.029 115.201 104.416 116.412 98.4797 114.918C97.7239 114.728 97.5199 114.885 96.5342 116.417C95.4877 118.044 92.5316 121.087 90.9085 122.207C90.1467 122.733 90.3154 124.51 91.2208 125.491C91.3752 125.658 91.5019 125.981 91.5019 126.207C91.5019 126.433 92.1621 128.028 92.9687 129.751C94.8518 133.773 95.2081 134.577 95.688 135.881C96.2303 137.354 98.2201 137.89 98.2201 136.563C98.2201 136.424 98.724 135.231 99.3398 133.913C99.9557 132.594 100.46 131.408 100.46 131.277C100.46 130.841 102.198 127.112 102.452 127.003C102.59 126.944 102.621 126.763 102.522 126.602C102.423 126.441 102.502 126.309 102.699 126.309C102.896 126.309 102.968 126.164 102.859 125.988C102.75 125.812 102.783 125.667 102.932 125.667C103.081 125.667 103.224 125.415 103.251 125.106C103.336 124.102 105.315 120.814 105.981 120.567C106.73 120.289 109.701 121.087 117.357 123.619C125.407 126.283 125.516 126.214 122.784 120.214C122.584 119.773 122.408 119.34 122.394 119.252C122.38 119.163 122.093 118.514 121.755 117.808C121.418 117.102 120.525 115.154 119.772 113.478C118.137 109.839 117.95 109.77 115.318 111.835Z" fill="#57868B"/>
</svg>
