<svg width="160" height="160" viewBox="0 0 160 160" fill="none" xmlns="http://www.w3.org/2000/svg">
<path fill-rule="evenodd" clip-rule="evenodd" d="M68.1998 0.231751C68.1121 0.317928 66.1681 0.772862 63.8796 1.24343C60.3805 1.9621 53.4798 4.10851 47.3961 6.36956C45.4461 7.09465 37.1539 11.6777 37.1539 12.0304C37.1539 12.1855 36.9966 12.3126 36.8046 12.3126C36.6126 12.3126 35.8676 12.8168 35.149 13.4329C34.4305 14.0489 33.7835 14.4938 33.7111 14.4217C33.6387 14.3491 33.3399 14.4991 33.0462 14.7548C32.7529 15.0101 31.0005 16.4915 29.1521 18.0467C25.0425 21.5038 19.076 27.6437 16.5714 30.9917C15.5492 32.3581 14.5686 33.476 14.3922 33.476C14.2157 33.476 14.1417 33.5907 14.2285 33.731C14.3149 33.8712 13.8841 34.7009 13.2711 35.5747C10.9746 38.8495 10.3357 39.9285 8.5037 43.6289C7.47027 45.7164 6.51607 47.7133 6.38364 48.066C3.64185 55.361 2.75886 58.1287 1.83066 62.3353C-0.911535 74.7608 -0.549056 89.9929 2.75686 101.255C3.00891 102.114 3.14494 102.931 3.05892 103.071C2.9729 103.211 3.01931 103.373 3.16174 103.433C3.30417 103.491 3.82389 104.694 4.31639 106.105C5.77791 110.292 8.08441 115.987 8.66653 116.847C8.965 117.288 9.69795 118.587 10.2953 119.733C10.8926 120.88 11.8148 122.421 12.3449 123.159C14.0737 125.564 14.449 126.131 14.373 126.219C14.2925 126.313 14.3426 126.378 17.306 129.994C20.2938 133.641 20.4987 133.882 22.0806 135.601C23.955 137.639 27.0913 140.497 29.9523 142.774C31.1846 143.755 32.2408 144.672 32.2996 144.811C32.358 144.951 32.6021 145.065 32.8413 145.065C33.081 145.065 33.4779 145.353 33.7235 145.705C33.9696 146.056 34.2657 146.248 34.3821 146.132C34.4981 146.016 34.5933 146.089 34.5933 146.295C34.5933 146.5 34.7822 146.669 35.013 146.669C35.2439 146.669 35.742 146.957 36.1201 147.31C36.4977 147.663 36.9098 147.951 37.0354 147.951C37.1607 147.951 37.4907 148.153 37.7688 148.4C38.8154 149.33 47.1676 153.636 48.4155 153.889C48.7124 153.949 49.2165 154.138 49.5357 154.309C60.8654 160.357 89.8096 161.982 101.808 157.244C102.248 157.07 103.004 156.897 103.488 156.859C103.972 156.821 104.368 156.661 104.368 156.505C104.368 156.348 104.584 156.303 104.848 156.404C105.113 156.506 105.329 156.477 105.329 156.34C105.329 156.202 106.013 155.857 106.849 155.573C111.64 153.945 113.351 153.258 115.997 151.901C119.522 150.094 123.691 147.623 123.839 147.255C123.898 147.109 124.15 146.989 124.399 146.989C124.649 146.989 124.853 146.845 124.853 146.669C124.853 146.492 125.053 146.348 125.298 146.348C125.544 146.348 125.831 146.122 125.937 145.846C126.042 145.571 126.261 145.428 126.424 145.528C126.586 145.628 126.767 145.578 126.826 145.416C126.885 145.254 128.101 144.207 129.529 143.09C134.618 139.105 136.993 136.965 138.991 134.566C142.988 129.766 143.464 129.173 144.451 127.75C145.002 126.956 145.643 126.191 145.875 126.05C146.107 125.909 146.297 125.584 146.297 125.329C146.297 125.073 146.441 124.864 146.617 124.864C146.794 124.864 146.938 124.647 146.938 124.383C146.938 124.118 147.058 123.902 147.206 123.902C147.354 123.902 147.639 123.577 147.839 123.18C148.039 122.783 148.64 121.737 149.175 120.855C150.299 119.003 153.985 111.663 154.113 111.025C154.325 109.965 154.726 108.643 154.925 108.35C155.045 108.173 155.415 107.199 155.747 106.185C156.08 105.171 156.462 104.342 156.596 104.342C156.73 104.342 156.757 104.125 156.655 103.861C156.554 103.596 156.639 103.38 156.844 103.38C157.05 103.38 157.15 103.269 157.067 103.135C156.984 103 157.323 101.305 157.821 99.3674C159.621 92.3566 160.161 86.8982 159.96 77.7269C159.8 70.4071 159.678 69.2808 158.27 62.175C157.756 59.5837 155.811 53.4174 154.655 50.7146C154.31 49.9074 154.09 49.1843 154.166 49.1073C154.607 48.666 147.59 36.1203 145.737 34.0372C145.462 33.7285 145.336 33.476 145.455 33.476C145.575 33.476 145.201 32.9586 144.625 32.3257C144.049 31.6932 143.433 30.9168 143.257 30.6009C141.891 28.1495 132.113 18.4532 128.21 15.6795C127.714 15.3268 127.115 14.8474 126.88 14.6145C126.646 14.3812 126.453 14.2806 126.453 14.3904C126.453 14.5912 124.54 13.2321 123.487 12.2837C123.176 12.0031 122.528 11.5742 122.047 11.3297C121.566 11.0856 120.308 10.3742 119.252 9.7481C113.706 6.46255 104.305 2.97699 96.2066 1.20455C92.581 0.410518 68.8571 -0.413174 68.1998 0.231751ZM89.0051 25.2608C90.5014 25.5325 92.2298 25.8219 92.8459 25.9037C94.8311 26.1674 98.1122 27.1162 98.6323 27.5771C98.9104 27.8232 99.3913 28.0248 99.701 28.0248C100.748 28.0248 106.983 31.2511 110.729 33.7314C116.181 37.3416 121.851 42.9463 125.839 48.6672C127.931 51.6686 128.476 51.4329 119.439 51.4329H111.485L110.232 50.2304C109.543 49.5691 108.075 48.3065 106.971 47.4247C105.865 46.5429 104.634 45.5328 104.234 45.1801C103.834 44.8273 102.944 44.2514 102.257 43.9006C101.57 43.5495 100.935 43.1655 100.846 43.0477C100.123 42.0829 91.0315 38.6086 89.0827 38.5521C88.4237 38.5328 87.7576 38.4446 87.602 38.3561C86.9218 37.9689 76.8376 37.7909 73.9618 38.1156C69.2472 38.6474 60.0784 42.0043 58.0468 43.9419C57.8315 44.1475 57.1114 44.651 56.4464 45.061C54.9961 45.9557 54.0063 46.7822 51.2173 49.4288L49.1053 51.4329H41.0595C31.7523 51.4329 32.3736 51.851 35.3935 47.6191C37.3751 44.8418 44.453 37.265 45.7005 36.5856C46.0882 36.3744 47.743 35.2637 49.3777 34.1173C51.0125 32.971 52.7116 31.8531 53.1537 31.6334C53.5958 31.4134 54.4616 30.924 55.0777 30.546C56.452 29.7027 60.5189 27.9888 60.5189 28.2529C60.5189 28.3587 60.771 28.2204 61.079 27.9463C61.774 27.3274 66.6194 25.8872 69.0007 25.5914C69.5289 25.5261 71.4013 25.2584 73.1616 24.9966C77.0841 24.413 85.0734 24.5465 89.0051 25.2608ZM42.595 79.9715V98.2491H39.3944H36.1937V86.2885C36.1937 72.307 36.3177 72.7808 33.4191 75.6847L31.3546 77.753L30.3336 76.682C29.7719 76.0932 28.7461 75.0085 28.0543 74.2714L26.7964 72.9323L27.543 72.2833C27.9539 71.9262 28.2067 71.6344 28.1051 71.6344C28.0035 71.6344 30.178 69.3998 32.9374 66.6686L37.954 61.7028L40.2745 61.6984L42.595 61.694V79.9715ZM63.9713 62.775C66.8647 64.2552 69.6109 67.2093 70.0046 69.2659C70.235 70.4688 70.3854 71.1534 70.4191 71.1534C70.6523 71.1534 70.3582 89.1784 70.1078 90.2266C69.9189 91.017 69.1912 92.4079 68.491 93.3173C63.0875 100.334 53.477 99.4371 49.1565 91.5128L48.1963 89.7516L48.0974 80.8129C48.043 75.8968 48.0982 71.64 48.2199 71.3534C48.3415 71.0672 48.4823 70.5253 48.5327 70.1494C49.3469 64.0889 58.2376 59.8422 63.9713 62.775ZM92.6987 63.3177C97.7149 66.1772 98.4471 68.2983 98.4471 79.9715C98.4471 89.7504 98.4015 90.0763 96.6599 92.7618C90.779 101.829 77.8519 98.7798 76.1715 87.9291C75.6182 84.3569 75.9542 71.2556 76.6468 69.3898C77.4078 67.3396 78.9769 65.1431 80.3264 64.2388C80.9625 63.8123 81.5571 63.365 81.6471 63.2448C83.1534 61.2322 89.1095 61.2719 92.6987 63.3177ZM112.102 62.484C114.354 64.0172 115.17 67.0346 113.97 69.3918C111.911 73.4349 106.37 73.1772 104.317 68.9429C102.161 64.4969 107.974 59.6738 112.102 62.484ZM134.594 62.4155C134.38 63.1045 131.709 67.4514 131.293 67.7865C131.184 67.8747 130.95 68.1761 130.774 68.4559C130.598 68.7361 130.054 69.5297 129.564 70.2195C128.415 71.8388 123.604 79.222 121.015 83.3384C119.906 85.1021 117.903 88.198 116.565 90.2186C115.226 92.2387 114.074 94.0424 114.004 94.2268C113.934 94.4108 113.466 95.0874 112.964 95.7299C112.461 96.3724 112.05 96.9961 112.05 97.1155C112.05 97.9865 110.981 98.2491 107.432 98.2491C105.395 98.2491 103.728 98.1605 103.728 98.0527C103.728 97.9444 105.286 95.4553 107.19 92.5213C109.094 89.5869 110.919 86.7535 111.247 86.2244C111.574 85.6953 112.069 85.0864 112.346 84.8716C112.623 84.6568 112.706 84.4744 112.53 84.466C112.354 84.4575 112.426 84.314 112.69 84.1469C112.954 83.9798 113.173 83.7292 113.176 83.5906C113.179 83.4519 114.766 80.9576 116.702 78.0476C118.638 75.1376 121.803 70.2676 123.733 67.2253L127.244 61.694H131.031C134.811 61.694 134.818 61.6952 134.594 62.4155ZM57.6459 68.7573C55.1438 69.3433 54.7617 70.832 54.7593 80.004C54.7569 89.6995 55.2362 91.0134 58.8273 91.1589C59.8252 91.1994 60.7558 91.3036 60.8962 91.3902C61.5087 91.7698 63.6644 89.0558 63.8756 87.6397C64.8715 80.9555 63.6244 69.0691 61.9276 69.0691C61.6808 69.0691 61.4783 68.9609 61.4775 68.8286C61.4755 68.4911 58.9802 68.4446 57.6459 68.7573ZM85.6443 68.8158C84.3384 69.2744 83.5583 69.9954 83.0398 71.2232C82.4028 72.7311 82.4144 87.3346 83.0534 88.5652C84.7157 91.7662 89.5824 92.1826 91.0943 89.2534C92.0045 87.4898 91.6452 70.9783 90.6738 69.9433C89.4676 68.6575 87.4087 68.1961 85.6443 68.8158ZM132.79 88.0341C136.211 89.6935 136.314 94.6553 132.977 97.0398C128.56 100.196 122.633 94.7082 125.478 90.0967C127.088 87.4866 129.979 86.6709 132.79 88.0341ZM51.717 110.748C53.1253 112.154 54.4232 113.308 54.6008 113.312C54.7789 113.316 55.3126 113.681 55.7871 114.122C56.262 114.563 56.8005 114.923 56.9842 114.923C57.1678 114.923 57.3182 115.068 57.3182 115.244C57.3182 115.42 57.4551 115.565 57.6223 115.565C57.7895 115.565 58.5665 115.998 59.3491 116.527C60.1316 117.056 60.9034 117.489 61.0646 117.489C61.2259 117.489 62.3569 117.979 63.5788 118.579C67.2704 120.391 72.0302 121.625 76.0423 121.81C77.2745 121.867 79.1577 121.952 80.2272 121.999C81.2966 122.046 82.3444 121.978 82.5557 121.847C82.7665 121.716 83.3318 121.696 83.8119 121.801C87.0598 122.513 100.09 118.111 103.13 115.274C103.465 114.961 104.124 114.502 104.594 114.253C105.064 114.005 105.758 113.512 106.136 113.16C106.513 112.807 107.916 111.544 109.253 110.354L111.685 108.189H119.549C123.874 108.189 127.413 108.31 127.413 108.458C127.413 110.072 118.891 119.862 114.771 122.981C109.761 126.774 100.677 131.926 99.8746 131.429C99.7058 131.325 99.5673 131.392 99.5673 131.579C99.5673 131.766 99.4593 131.896 99.3273 131.869C99.1953 131.841 98.5227 132.07 97.8326 132.377C96.0838 133.154 92.1581 134.125 89.8356 134.355C88.7626 134.461 87.7408 134.658 87.5647 134.793C87.2259 135.051 73.7242 134.968 72.3615 134.7C71.9214 134.613 71.1292 134.449 70.6011 134.337C70.073 134.224 69.136 134.082 68.519 134.02C67.1051 133.879 62.9078 132.629 61.6392 131.971C61.111 131.697 60.4593 131.434 60.1912 131.388C55.6775 130.603 42.0049 120.805 37.8692 115.391C35.9888 112.93 32.993 108.657 32.993 108.436C32.993 108.301 36.6298 108.19 41.0747 108.191L49.1565 108.192L51.717 110.748Z" fill="#57868B"/>
</svg>
