<svg width="160" height="160" viewBox="0 0 160 160" fill="none" xmlns="http://www.w3.org/2000/svg">
<path fill-rule="evenodd" clip-rule="evenodd" d="M68.5002 0.654943C62.6873 1.55628 59.1543 2.42165 54.015 4.20235C51.5082 5.07091 49.2215 5.83915 48.9334 5.9087C48.6454 5.97865 48.1413 6.1821 47.8132 6.36037C47.4852 6.53904 46.1814 7.1434 44.916 7.70339C43.6506 8.26338 42.5388 8.9201 42.4456 9.16272C42.3524 9.40534 42.0859 9.604 41.8535 9.604C41.2806 9.604 39.5295 10.5209 37.7176 11.7692C36.8939 12.3372 36.1001 12.8017 35.9541 12.8017C35.8081 12.8017 35.5088 13.0894 35.2892 13.4412C35.0692 13.7929 34.6023 14.0807 34.2518 14.0807C33.9014 14.0807 33.6145 14.1922 33.6145 14.3281C33.6145 14.4644 32.7144 15.2143 31.6142 15.9949C29.1698 17.7289 18.8937 27.7615 17.5259 29.7493C16.9814 30.5407 16.3457 31.3033 16.1137 31.444C15.8816 31.5847 15.6916 31.9049 15.6916 32.1559C15.6916 32.4069 15.3272 32.851 14.8815 33.1428C14.4358 33.4346 14.145 33.7467 14.235 33.8367C14.325 33.9266 13.6217 35.1081 12.6719 36.4624C9.11135 41.539 5.19231 50.2075 2.83953 58.2085C-0.920683 70.9967 -0.949488 89.3901 2.77192 101.377C4.23535 106.091 5.34754 109.283 6.29769 111.498C6.53573 112.052 6.73016 112.651 6.73016 112.83C6.73016 113.121 7.89155 115.382 10.2347 119.652C14.4906 127.409 23.2244 137.538 30.254 142.869C31.3102 143.67 32.2223 144.447 32.2811 144.595C32.3395 144.744 32.5836 144.865 32.8228 144.865C33.0624 144.865 33.4593 145.152 33.7049 145.503C33.951 145.853 34.247 146.045 34.3635 145.929C34.4795 145.813 34.5747 145.886 34.5747 146.091C34.5747 146.296 34.7907 146.464 35.0548 146.464C35.3188 146.464 35.5348 146.585 35.5348 146.733C35.5348 146.881 36.2646 147.42 37.1563 147.932C38.048 148.444 39.3083 149.184 39.9568 149.578C42.3435 151.027 47.2091 153.376 49.1371 154.011C49.3131 154.069 51.4734 154.815 53.9378 155.67C67.8717 160.502 84.7928 161.352 98.4251 157.907C100.537 157.373 102.59 156.918 102.986 156.896C103.382 156.874 103.706 156.748 103.706 156.616C103.706 156.485 104.138 156.377 104.666 156.377C105.194 156.377 105.626 156.233 105.626 156.057C105.626 155.881 105.786 155.737 105.982 155.737C107.894 155.737 121.106 149.539 123.09 147.712C123.453 147.377 123.921 147.103 124.13 147.103C124.338 147.103 124.509 146.991 124.509 146.852C124.509 146.584 126.094 145.568 126.534 145.555C126.679 145.55 127.039 145.281 127.334 144.957C127.629 144.633 128.518 143.875 129.31 143.273C133.922 139.769 139.473 134.26 143.01 129.676C143.824 128.621 144.711 127.589 144.981 127.383C145.251 127.178 145.476 126.89 145.479 126.744C145.489 126.306 146.711 124.4 146.982 124.4C147.12 124.4 147.233 124.184 147.233 123.92C147.233 123.657 147.354 123.441 147.502 123.441C147.649 123.441 147.933 123.117 148.131 122.721C148.329 122.326 148.925 121.282 149.454 120.403C150.83 118.119 153.352 113.208 153.15 113.208C153.056 113.208 153.203 112.866 153.477 112.449C153.751 112.031 154.034 111.419 154.106 111.09C154.376 109.851 156.339 104.73 156.584 104.627C156.724 104.568 156.764 104.399 156.672 104.251C156.581 104.103 156.72 103.354 156.981 102.585C160.673 91.7191 161.03 72.6055 157.77 60.2717C157.4 58.8732 157.075 57.513 157.046 57.2492C157.018 56.9853 156.915 56.6976 156.819 56.6096C156.722 56.5217 156.405 55.7303 156.115 54.8509C155.825 53.9715 155.228 52.2196 154.789 50.9578C153.527 47.3296 149.373 38.9941 148.157 37.6487C147.872 37.3329 147.367 36.5551 147.035 35.9207C146.704 35.286 146.109 34.4358 145.713 34.0313C145.317 33.6268 144.993 33.1452 144.993 32.9613C144.993 32.7775 144.741 32.3502 144.433 32.0112C144.124 31.6727 143.008 30.3672 141.952 29.1105C137.167 23.4155 135.72 21.9738 130.403 17.5982C129.227 16.6309 128.104 15.6955 127.907 15.5197C127.711 15.3438 127.173 15.006 126.713 14.7694C126.253 14.5328 125.503 13.9932 125.047 13.5703C124.591 13.1474 124.067 12.8017 123.883 12.8017C123.7 12.8017 123.549 12.6833 123.549 12.5387C123.549 12.394 122.937 11.9595 122.189 11.573C121.441 11.1868 120.109 10.435 119.228 9.90258C117.306 8.73943 112.929 6.63617 111.547 6.21128C110.361 5.84715 103.836 3.35657 103.706 3.21867C103.618 3.12514 103.258 3.02201 102.906 2.98884C102.554 2.95606 101.114 2.6303 99.7053 2.26537C91.2539 0.0737681 76.9924 -0.662094 68.5002 0.654943ZM106.266 24.8632C110.323 26.8634 120.446 37.177 121.273 40.1533C121.504 40.9851 121.626 46.1757 121.627 55.2506C121.629 68.2411 121.663 69.0805 122.193 69.0805C122.503 69.0805 125.203 66.6319 128.194 63.6389C134.08 57.7472 135.387 56.893 138.592 56.8423C148.105 56.6908 151.637 67.2323 144.336 73.9857C143.113 75.1173 142.11 76.1673 142.107 76.3192C142.104 76.4707 137.495 81.1912 131.865 86.8091L121.629 97.0233V112.412C121.629 130.527 121.676 130.184 118.802 132.957C115.455 136.186 119.354 135.898 79.0619 135.898C44.201 135.898 43.6758 135.888 42.2559 135.248C40.156 134.301 37.3031 131.349 36.9487 129.756C36.9191 129.624 36.8591 129.444 36.8151 129.356C36.7282 129.183 36.5982 128.699 36.5358 128.317C36.3546 127.21 36.5326 31.2274 36.7162 30.9336C36.8487 30.7218 36.9827 30.3796 37.0143 30.173C37.1499 29.2816 39.1938 26.807 40.5833 25.8517C43.3189 23.9715 42.3423 24.0215 74.9012 24.0902L104.826 24.1534L106.266 24.8632ZM44.2983 30.0634C43.9254 30.2141 43.3133 30.8333 42.938 31.44L42.2559 32.5428L42.2571 80.15C42.2583 133.95 42.0339 129.389 44.7195 130.134C46.3838 130.596 111.391 130.604 113.053 130.143C115.596 129.437 115.548 129.715 115.548 115.883C115.548 109.136 115.469 103.615 115.372 103.615C115.275 103.615 114.747 103.847 114.197 104.131C112.625 104.943 99.2496 109.371 98.3679 109.371C97.3433 109.371 95.7046 107.74 95.7046 106.72C95.7046 106.29 96.7128 102.991 97.945 99.3879C99.1772 95.7858 100.185 92.5717 100.185 92.246C100.185 91.9002 103.379 88.4535 107.87 83.9524L115.555 76.2513L115.471 62.993L115.388 49.7346L106.586 49.5748C94.8901 49.3621 96.0247 50.4733 96.0247 39.2295C96.0247 34.5717 95.9371 30.5331 95.8302 30.2549C95.6122 29.6869 45.6909 29.5014 44.2983 30.0634ZM101.944 30.1166C101.85 30.3636 101.811 33.5117 101.859 37.1127L101.946 43.6591L108.747 43.7454L115.548 43.8318V42.4848C115.548 39.5953 102.767 27.975 101.944 30.1166ZM100.96 58.1841C102.07 59.2269 102.033 60.48 100.852 61.8006L99.9181 62.8451L75.9078 62.933L51.8975 63.0205L50.7573 62.0205C49.4811 60.9009 49.2819 59.7885 50.1384 58.5666C51.1866 57.0713 51.0158 57.0801 76.2699 57.2492L100.134 57.409L100.96 58.1841ZM137.448 62.8183C135.761 63.5521 132.883 66.4832 133.07 67.2758C133.309 68.2847 137.012 71.9596 137.782 71.952C138.432 71.9456 141.849 68.8914 142.439 67.789C144.027 64.8236 140.626 61.4357 137.448 62.8183ZM85.7386 70.2389C88.179 70.7265 89.0964 73.2534 87.5149 75.1317L86.6864 76.1154H69.0871H51.4882L50.5525 75.1808C49.5003 74.1292 49.3095 72.5516 50.1072 71.4975C50.3657 71.1562 50.5817 71.0123 50.5873 71.1778C50.5929 71.3432 50.7765 71.2437 50.9954 70.9563C51.2142 70.6693 51.6779 70.362 52.0255 70.274C52.9557 70.0386 84.5704 70.0054 85.7386 70.2389ZM120.193 79.3942C114.513 85.1212 112.542 87.3032 112.617 87.7808C112.725 88.4759 116.754 92.7432 117.302 92.7432C117.85 92.7432 133.088 77.2853 133.22 76.595C133.381 75.7524 129.482 71.6354 128.533 71.6458C128.097 71.651 125.238 74.3075 120.193 79.3942ZM87.5177 84.4049C88.6247 85.4445 88.6483 87.2372 87.5713 88.4883L86.7988 89.3857L69.4083 89.4688C52.4284 89.5503 51.9927 89.5367 50.9613 88.9044C50.3809 88.5483 49.9932 88.115 50.1004 87.9419C50.2072 87.7684 50.1424 87.6269 49.956 87.6269C49.5227 87.6269 49.5151 85.8566 49.9452 85.0536C50.7865 83.4832 50.8069 83.4816 69.3547 83.5583L86.692 83.6299L87.5177 84.4049ZM106.652 92.8331C105.883 93.6505 103.287 100.639 103.578 101.108C103.782 101.438 105.685 101.351 105.952 100.999C106.043 100.879 107.171 100.498 108.46 100.153C113.155 98.8951 113.572 97.6216 110.339 94.414C107.756 91.8498 107.628 91.7951 106.652 92.8331ZM87.2068 97.5837C88.8723 98.8931 88.8199 100.668 87.0776 101.955C86.1691 102.626 85.983 102.634 68.9659 102.634L51.7719 102.634L50.6945 101.558C49.2711 100.136 49.2407 98.8723 50.6017 97.7279L51.5867 96.9002H68.9615C86.2263 96.9002 86.3423 96.9045 87.2068 97.5837ZM100.395 117.663C101.874 118.564 102.091 119.943 100.982 121.395C99.6997 123.075 99.3668 123.121 88.4506 123.121H78.3578L77.2696 122.034C75.6646 120.43 75.8486 118.553 77.7097 117.544C79.2123 116.729 99.0328 116.833 100.395 117.663Z" fill="#57868B"/>
</svg>
